<svg style="aspect-ratio: 349 / 64;" viewBox="0 0 349 64" fill="none" xmlns="http://www.w3.org/2000/svg"><path d="M54.6026 48H42.6439L23.4975 33.9225V48H16V16H23.4975V29.3333L41.2187 16H52.0002L30.809 31.0698L54.6026 48ZM99.7699 29.3333C99.7699 33.4677 97.374 35.5349 92.5822 35.5349H72.5064V48H65.1948V16H92.5822C97.374 16 99.7699 18.0672 99.7699 22.2016V29.3333ZM92.5822 27.4729V24.062C92.5822 22.9871 92.2724 22.2842 91.6528 21.9535C91.1984 21.6641 90.3928 21.5194 89.2362 21.5194H72.5064V30.0155H89.2362C90.3928 30.0155 91.1984 29.8708 91.6528 29.5814C92.2724 29.2506 92.5822 28.5478 92.5822 27.4729ZM144.765 16L127.168 48H122.025L103.56 16H112.049L124.999 39.1318L137.33 16H144.765ZM186.445 48H153.419V16H186.135V21.4574H160.854V28.5891H175.601V34.0465H160.854V41.9845H186.445V48ZM238.114 48H227.457L214.569 35.907H207.505V48H200.193V16H227.581C232.372 16 234.768 18.0672 234.768 22.2016V29.7054C234.768 32.8062 233.529 34.7287 231.051 35.4729C230.1 35.7622 227.539 35.907 223.367 35.907L238.114 48ZM227.581 27.907V24.062C227.581 22.9871 227.271 22.2842 226.651 21.9535C226.197 21.6641 225.391 21.5194 224.235 21.5194H207.505V30.4496H224.235C225.391 30.4496 226.197 30.3049 226.651 30.0155C227.271 29.6847 227.581 28.9819 227.581 27.907ZM284.571 40.4341C284.571 43.4109 283.993 45.4161 282.836 46.4496C281.679 47.4832 279.593 48 276.578 48H256.812C253.548 48 251.4 47.4212 250.368 46.2636C249.335 45.106 248.819 42.8734 248.819 39.5659L255.387 38.2016V41.9845H278.003V34.6667H258.051C255.035 34.6667 252.949 34.1498 251.793 33.1163C250.678 32.0827 250.12 30.0775 250.12 27.1008V23.5659C250.12 20.5891 250.678 18.584 251.793 17.5504C252.949 16.5168 255.035 16 258.051 16H276.206C279.263 16 281.349 16.5375 282.465 17.6124C283.58 18.646 284.138 20.6718 284.138 23.6899L277.57 25.2403V21.5814H256.626V28.4651H276.578C279.593 28.4651 281.679 28.9819 282.836 30.0155C283.993 31.0491 284.571 33.0543 284.571 36.031V40.4341ZM333 48H299.974V16H332.69V21.4574H307.409V28.5891H322.157V34.0465H307.409V41.9845H333V48Z" fill="#1A1C1E"/></svg>