<svg width="318" height="32" viewBox="0 0 318 32" fill="none" xmlns="http://www.w3.org/2000/svg" > <title>KPVERSE</title> <path d="M38.81 32H26.844L7.686 17.926V32H0.184V0.00799799H7.686V13.338L25.418 0.00799799H36.206L15.002 15.074L38.81 32ZM84.0046 13.338C84.0046 17.4713 81.6073 19.538 76.8126 19.538H56.7246V32H49.4086V0.00799799H76.8126C81.6073 0.00799799 84.0046 2.07467 84.0046 6.208V13.338ZM76.8126 11.478V8.068C76.8126 6.99333 76.5026 6.29067 75.8826 5.96C75.4279 5.67067 74.6219 5.526 73.4646 5.526H56.7246V14.02H73.4646C74.6219 14.02 75.4279 13.8753 75.8826 13.586C76.5026 13.2553 76.8126 12.5527 76.8126 11.478ZM129.027 0.00799799L111.419 32H106.273L87.7968 0.00799799H96.2908L109.249 23.134L121.587 0.00799799H129.027ZM170.732 32H137.686V0.00799799H170.422V5.464H145.126V12.594H159.882V18.05H145.126V25.986H170.732V32ZM222.433 32H211.769L198.873 19.91H191.805V32H184.489V0.00799799H211.893C216.687 0.00799799 219.085 2.07467 219.085 6.208V13.71C219.085 16.81 217.845 18.732 215.365 19.476C214.414 19.7653 211.851 19.91 207.677 19.91L222.433 32ZM211.893 11.912V8.068C211.893 6.99333 211.583 6.29067 210.963 5.96C210.508 5.67067 209.702 5.526 208.545 5.526H191.805V14.454H208.545C209.702 14.454 210.508 14.3093 210.963 14.02C211.583 13.6893 211.893 12.9867 211.893 11.912ZM268.918 24.436C268.918 27.412 268.339 29.4167 267.182 30.45C266.024 31.4833 263.937 32 260.92 32H241.142C237.876 32 235.727 31.4213 234.694 30.264C233.66 29.1067 233.144 26.8747 233.144 23.568L239.716 22.204V25.986H262.346V18.67H242.382C239.364 18.67 237.277 18.1533 236.12 17.12C235.004 16.0867 234.446 14.082 234.446 11.106V7.572C234.446 4.596 235.004 2.59133 236.12 1.558C237.277 0.524665 239.364 0.00799799 242.382 0.00799799H260.548C263.606 0.00799799 265.694 0.545332 266.81 1.62C267.926 2.65333 268.484 4.67866 268.484 7.696L261.912 9.246V5.588H240.956V12.47H260.92C263.937 12.47 266.024 12.9867 267.182 14.02C268.339 15.0533 268.918 17.058 268.918 20.034V24.436ZM317.376 32H284.33V0.00799799H317.066V5.464H291.77V12.594H306.526V18.05H291.77V25.986H317.376V32Z" fill="#1A1C1E" /></svg>
