<svg width="3534" height="512" viewBox="0 0 3534 512" fill="none" xmlns="http://www.w3.org/2000/svg">
<rect width="3534" height="512" rx="168" fill="url(#paint0_linear_63_36)"/>
<path fill-rule="evenodd" clip-rule="evenodd" d="M324.118 102.065C359.197 107.249 388.789 134.007 393.357 167.959C395.347 188.153 394.362 218.496 393.883 233.245C393.764 236.916 393.676 239.621 393.673 240.964C393.673 242.946 393.386 261.042 393.271 262.952C390.197 311.469 359.944 330.628 328.155 336.732C327.812 336.835 327.425 336.91 327.028 336.988C326.925 337.007 326.822 337.028 326.718 337.048C306.564 340.983 284.974 342.032 264.49 342.606C259.592 342.735 254.708 342.735 249.81 342.735H249.809C229.442 342.741 209.146 340.33 189.347 335.554C189.242 335.527 189.132 335.525 189.026 335.548C188.92 335.571 188.821 335.619 188.737 335.688C188.653 335.756 188.586 335.843 188.543 335.943C188.499 336.042 188.479 336.15 188.485 336.258C189.045 342.703 190.445 349.048 192.65 355.13C195.394 362.168 204.976 379.073 240.601 379.073C261.302 379.111 281.934 376.7 302.068 371.891C302.17 371.868 302.277 371.867 302.379 371.89C302.481 371.913 302.577 371.958 302.66 372.023C302.743 372.088 302.81 372.17 302.857 372.264C302.903 372.358 302.928 372.461 302.93 372.566V396.379C302.926 396.491 302.897 396.601 302.845 396.701C302.793 396.8 302.719 396.887 302.628 396.954C296.333 401.516 287.869 404.198 280.455 406.548C280.121 406.654 279.788 406.759 279.458 406.864C276.087 407.927 272.673 408.86 269.216 409.665C237.79 416.822 204.991 415.091 174.493 404.666C146.008 394.67 116.933 370.168 109.751 340.725C105.915 324.783 103.212 308.59 101.663 292.266C100.035 274.416 99.4914 256.535 98.9467 238.629C98.7416 231.885 98.5363 225.137 98.273 218.386C97.5978 201.18 97.9857 182.422 101.62 165.503C109.176 131.148 140.319 107.106 174.422 102.065C175.122 101.961 175.897 101.825 176.803 101.665C183.553 100.478 197.64 98 243.445 98H243.833C295.776 98 318.2 101.188 324.118 102.065ZM342.993 290.456V206.105C343.003 188.861 338.612 175.169 329.821 165.029C320.713 154.903 308.805 149.704 294.038 149.704C276.958 149.704 264.029 156.282 255.411 169.423L247.079 183.384L238.762 169.423C230.143 156.282 217.214 149.704 200.106 149.704C185.324 149.704 173.416 154.903 164.337 165.029C155.536 175.178 151.136 188.87 151.136 206.105V290.456H184.548V208.59C184.548 191.355 191.803 182.565 206.326 182.565C222.386 182.565 230.444 192.963 230.444 213.502V258.313H263.671V213.502C263.671 192.963 271.715 182.565 287.775 182.565C302.384 182.565 309.566 191.355 309.566 208.59V290.456H342.993Z" fill="white"/>
<path d="M619.378 357.748C603.785 357.748 589.902 355.622 577.731 351.369C565.56 347.166 555.27 340.982 546.863 332.819C538.455 324.704 532.052 314.781 527.653 303.051C523.253 291.319 521.054 277.974 521.054 263.017C521.054 248.255 523.253 234.861 527.653 222.837C532.101 210.812 538.577 200.498 547.083 191.895C555.588 183.243 565.975 176.595 578.244 171.952C590.562 167.308 604.591 164.986 620.331 164.986C634.897 164.986 647.9 167.112 659.338 171.365C670.825 175.618 680.553 181.679 688.52 189.549C696.536 197.37 702.622 206.682 706.777 217.484C710.981 228.238 713.058 240.141 713.008 253.192C713.058 262.186 712.275 270.447 710.663 277.974C709.05 285.502 706.508 292.077 703.037 297.697C699.616 303.27 695.118 307.693 689.546 310.968C683.974 314.195 677.228 316.028 669.309 316.468C663.639 316.908 659.045 316.493 655.525 315.222C652.006 313.951 649.317 312.069 647.46 309.576C645.651 307.034 644.478 304.077 643.94 300.704H643.06C641.887 303.637 639.59 306.301 636.168 308.696C632.747 311.043 628.567 312.875 623.63 314.195C618.742 315.466 613.536 315.93 608.013 315.589C602.245 315.246 596.77 313.902 591.589 311.556C586.456 309.209 581.886 305.812 577.878 301.364C573.918 296.916 570.79 291.417 568.492 284.866C566.244 278.317 565.095 270.74 565.046 262.137C565.095 253.632 566.293 246.226 568.639 239.921C571.034 233.615 574.187 228.311 578.098 224.01C582.057 219.708 586.456 216.335 591.296 213.891C596.135 211.447 600.998 209.883 605.886 209.199C611.41 208.368 616.64 208.368 621.577 209.199C626.514 210.03 630.669 211.374 634.042 213.232C637.463 215.089 639.59 217.093 640.421 219.244H641.447V211.032H664.397V282.594C664.445 285.967 665.203 288.582 666.669 290.439C668.136 292.297 670.116 293.225 672.609 293.225C675.982 293.225 678.792 291.734 681.041 288.752C683.338 285.771 685.049 281.2 686.173 275.042C687.346 268.882 687.934 261.037 687.934 251.505C687.934 242.316 686.711 234.25 684.267 227.309C681.872 220.319 678.499 214.38 674.148 209.492C669.847 204.555 664.837 200.547 659.118 197.467C653.398 194.388 647.19 192.139 640.494 190.722C633.846 189.304 627.003 188.596 619.964 188.596C607.793 188.596 597.161 190.453 588.069 194.168C578.977 197.834 571.401 202.991 565.34 209.639C559.278 216.287 554.733 224.083 551.702 233.028C548.72 241.925 547.205 251.627 547.156 262.137C547.205 273.722 548.818 283.987 551.995 292.932C555.221 301.828 559.963 309.307 566.22 315.369C572.476 321.429 580.199 326.024 589.389 329.153C598.579 332.281 609.137 333.845 621.064 333.845C626.685 333.845 632.184 333.429 637.561 332.599C642.938 331.817 647.801 330.839 652.152 329.666C656.503 328.542 659.998 327.442 662.638 326.366L669.896 347.629C666.817 349.39 662.638 351.027 657.358 352.542C652.127 354.106 646.214 355.353 639.614 356.281C633.064 357.259 626.319 357.748 619.378 357.748ZM616.005 291.466C621.968 291.466 626.71 290.316 630.229 288.019C633.797 285.722 636.339 282.324 637.855 277.828C639.419 273.282 640.152 267.685 640.054 261.037C640.005 255.171 639.248 250.21 637.781 246.153C636.364 242.047 633.895 238.943 630.376 236.841C626.905 234.69 622.066 233.615 615.858 233.615C610.432 233.615 605.813 234.764 602 237.061C598.237 239.358 595.353 242.585 593.348 246.739C591.393 250.845 590.391 255.685 590.342 261.257C590.391 266.438 591.222 271.351 592.835 275.995C594.448 280.59 597.112 284.328 600.827 287.213C604.542 290.048 609.601 291.466 616.005 291.466ZM762.08 282.081L762.153 244.613H766.699L802.772 201.867H838.627L790.161 258.471H782.755L762.08 282.081ZM733.777 314.488V164.326H765.012V314.488H733.777ZM804.166 314.488L771.025 265.436L791.848 243.367L840.753 314.488H804.166ZM853.952 356.721V201.867H884.746V220.784H886.139C887.508 217.753 889.487 214.673 892.079 211.545C894.718 208.368 898.139 205.728 902.343 203.626C906.596 201.476 911.875 200.4 918.181 200.4C926.393 200.4 933.969 202.551 940.91 206.853C947.851 211.105 953.4 217.533 957.554 226.136C961.71 234.69 963.787 245.42 963.787 258.324C963.787 270.887 961.758 281.493 957.701 290.146C953.693 298.748 948.218 305.274 941.277 309.722C934.385 314.121 926.661 316.322 918.108 316.322C912.046 316.322 906.889 315.319 902.636 313.315C898.432 311.311 894.987 308.794 892.299 305.763C889.61 302.684 887.557 299.58 886.139 296.451H885.186V356.721H853.952ZM884.526 258.177C884.526 264.874 885.455 270.715 887.312 275.701C889.169 280.687 891.859 284.573 895.377 287.36C898.897 290.097 903.174 291.466 908.209 291.466C913.292 291.466 917.594 290.073 921.113 287.286C924.633 284.451 927.297 280.54 929.105 275.555C930.964 270.52 931.892 264.728 931.892 258.177C931.892 251.676 930.987 245.957 929.178 241.02C927.371 236.083 924.706 232.222 921.186 229.436C917.668 226.649 913.342 225.256 908.209 225.256C903.126 225.256 898.824 226.6 895.304 229.289C891.834 231.977 889.169 235.79 887.312 240.727C885.455 245.664 884.526 251.481 884.526 258.177ZM1085.98 201.867L1046.6 314.488H1011.41L972.036 201.867H1005.03L1028.42 282.447H1029.59L1052.91 201.867H1085.98ZM1149.66 316.688C1138.07 316.688 1128.1 314.341 1119.74 309.649C1111.43 304.908 1105.03 298.212 1100.53 289.56C1096.03 280.858 1093.79 270.569 1093.79 258.691C1093.79 247.106 1096.03 236.939 1100.53 228.189C1105.03 219.439 1111.36 212.621 1119.52 207.732C1127.73 202.844 1137.36 200.4 1148.41 200.4C1155.84 200.4 1162.76 201.598 1169.16 203.993C1175.61 206.339 1181.23 209.883 1186.02 214.625C1190.86 219.366 1194.63 225.33 1197.32 232.515C1200 239.652 1201.35 248.01 1201.35 257.591V266.17H1106.25V246.813H1171.95C1171.95 242.316 1170.97 238.332 1169.01 234.861C1167.06 231.391 1164.34 228.678 1160.87 226.723C1157.45 224.719 1153.47 223.717 1148.92 223.717C1144.18 223.717 1139.98 224.816 1136.31 227.016C1132.7 229.167 1129.86 232.075 1127.81 235.741C1125.75 239.358 1124.7 243.391 1124.65 247.839V266.243C1124.65 271.815 1125.68 276.63 1127.73 280.687C1129.84 284.744 1132.79 287.873 1136.6 290.073C1140.42 292.272 1144.94 293.371 1150.17 293.371C1153.64 293.371 1156.82 292.883 1159.7 291.905C1162.59 290.928 1165.05 289.462 1167.11 287.506C1169.16 285.551 1170.72 283.155 1171.8 280.32L1200.69 282.227C1199.22 289.168 1196.22 295.23 1191.67 300.411C1187.17 305.543 1181.36 309.552 1174.22 312.435C1167.13 315.271 1158.94 316.688 1149.66 316.688ZM1221.73 314.488V201.867H1252.01V221.517H1253.19C1255.24 214.527 1258.69 209.248 1263.52 205.679C1268.36 202.062 1273.94 200.254 1280.24 200.254C1281.81 200.254 1283.49 200.351 1285.3 200.547C1287.11 200.743 1288.7 201.011 1290.07 201.354V229.069C1288.6 228.629 1286.57 228.238 1283.98 227.896C1281.39 227.554 1279.02 227.383 1276.87 227.383C1272.27 227.383 1268.17 228.385 1264.55 230.389C1260.98 232.344 1258.15 235.081 1256.05 238.601C1253.99 242.12 1252.97 246.177 1252.97 250.772V314.488H1221.73ZM1399.92 233.981L1371.32 235.741C1370.84 233.297 1369.79 231.097 1368.17 229.142C1366.56 227.138 1364.43 225.55 1361.79 224.376C1359.2 223.154 1356.1 222.543 1352.48 222.543C1347.64 222.543 1343.56 223.57 1340.24 225.623C1336.91 227.627 1335.25 230.315 1335.25 233.688C1335.25 236.377 1336.33 238.65 1338.48 240.507C1340.63 242.365 1344.32 243.855 1349.55 244.98L1369.93 249.086C1380.88 251.334 1389.04 254.951 1394.42 259.937C1399.8 264.923 1402.49 271.473 1402.49 279.587C1402.49 286.968 1400.31 293.445 1395.96 299.018C1391.66 304.59 1385.74 308.941 1378.22 312.069C1370.74 315.149 1362.11 316.688 1352.34 316.688C1337.43 316.688 1325.55 313.585 1316.7 307.377C1307.9 301.12 1302.74 292.615 1301.23 281.861L1331.95 280.247C1332.88 284.793 1335.13 288.264 1338.7 290.659C1342.27 293.005 1346.84 294.179 1352.41 294.179C1357.88 294.179 1362.28 293.128 1365.61 291.026C1368.98 288.875 1370.69 286.113 1370.74 282.74C1370.69 279.905 1369.49 277.583 1367.15 275.775C1364.8 273.917 1361.18 272.5 1356.29 271.522L1336.79 267.636C1325.79 265.436 1317.6 261.624 1312.23 256.198C1306.9 250.772 1304.24 243.855 1304.24 235.448C1304.24 228.214 1306.19 221.981 1310.1 216.751C1314.06 211.521 1319.61 207.488 1326.75 204.653C1333.93 201.818 1342.34 200.4 1351.97 200.4C1366.19 200.4 1377.39 203.406 1385.55 209.419C1393.76 215.431 1398.55 223.619 1399.92 233.981ZM1473.48 316.688C1461.89 316.688 1451.92 314.341 1443.56 309.649C1435.25 304.908 1428.85 298.212 1424.36 289.56C1419.86 280.858 1417.61 270.569 1417.61 258.691C1417.61 247.106 1419.86 236.939 1424.36 228.189C1428.85 219.439 1435.18 212.621 1443.35 207.732C1451.56 202.844 1461.19 200.4 1472.23 200.4C1479.66 200.4 1486.58 201.598 1492.98 203.993C1499.44 206.339 1505.06 209.883 1509.85 214.625C1514.69 219.366 1518.45 225.33 1521.14 232.515C1523.83 239.652 1525.17 248.01 1525.17 257.591V266.17H1430.07V246.813H1495.77C1495.77 242.316 1494.79 238.332 1492.84 234.861C1490.88 231.391 1488.17 228.678 1484.7 226.723C1481.28 224.719 1477.29 223.717 1472.75 223.717C1468 223.717 1463.8 224.816 1460.14 227.016C1456.52 229.167 1453.68 232.075 1451.63 235.741C1449.58 239.358 1448.53 243.391 1448.48 247.839V266.243C1448.48 271.815 1449.5 276.63 1451.56 280.687C1453.66 284.744 1456.62 287.873 1460.43 290.073C1464.24 292.272 1468.76 293.371 1473.99 293.371C1477.46 293.371 1480.64 292.883 1483.53 291.905C1486.41 290.928 1488.88 289.462 1490.93 287.506C1492.98 285.551 1494.55 283.155 1495.62 280.32L1524.51 282.227C1523.05 289.168 1520.04 295.23 1515.49 300.411C1511 305.543 1505.18 309.552 1498.04 312.435C1490.96 315.271 1482.77 316.688 1473.48 316.688ZM1643.88 357.748C1628.29 357.748 1614.4 355.622 1602.23 351.369C1590.06 347.166 1579.77 340.982 1571.36 332.819C1562.96 324.704 1556.55 314.781 1552.15 303.051C1547.75 291.319 1545.55 277.974 1545.55 263.017C1545.55 248.255 1547.75 234.861 1552.15 222.837C1556.6 210.812 1563.08 200.498 1571.58 191.895C1580.09 183.243 1590.48 176.595 1602.75 171.952C1615.06 167.308 1629.09 164.986 1644.83 164.986C1659.4 164.986 1672.4 167.112 1683.84 171.365C1695.33 175.618 1705.05 181.679 1713.02 189.549C1721.04 197.37 1727.12 206.682 1731.28 217.484C1735.48 228.238 1737.56 240.141 1737.51 253.192C1737.56 262.186 1736.78 270.447 1735.16 277.974C1733.55 285.502 1731.01 292.077 1727.54 297.697C1724.12 303.27 1719.62 307.693 1714.05 310.968C1708.48 314.195 1701.73 316.028 1693.81 316.468C1688.14 316.908 1683.55 316.493 1680.03 315.222C1676.51 313.951 1673.82 312.069 1671.96 309.576C1670.15 307.034 1668.98 304.077 1668.44 300.704H1667.56C1666.39 303.637 1664.09 306.301 1660.67 308.696C1657.25 311.043 1653.07 312.875 1648.13 314.195C1643.24 315.466 1638.04 315.93 1632.51 315.589C1626.75 315.246 1621.27 313.902 1616.09 311.556C1610.96 309.209 1606.39 305.812 1602.38 301.364C1598.42 296.916 1595.29 291.417 1592.99 284.866C1590.75 278.317 1589.6 270.74 1589.55 262.137C1589.6 253.632 1590.79 246.226 1593.14 239.921C1595.54 233.615 1598.69 228.311 1602.6 224.01C1606.56 219.708 1610.96 216.335 1615.8 213.891C1620.64 211.447 1625.5 209.883 1630.39 209.199C1635.91 208.368 1641.14 208.368 1646.08 209.199C1651.02 210.03 1655.17 211.374 1658.54 213.232C1661.96 215.089 1664.09 217.093 1664.92 219.244H1665.95V211.032H1688.9V282.594C1688.95 285.967 1689.71 288.582 1691.17 290.439C1692.64 292.297 1694.62 293.225 1697.11 293.225C1700.48 293.225 1703.29 291.734 1705.54 288.752C1707.84 285.771 1709.55 281.2 1710.68 275.042C1711.85 268.882 1712.43 261.037 1712.43 251.505C1712.43 242.316 1711.21 234.25 1708.77 227.309C1706.37 220.319 1703 214.38 1698.65 209.492C1694.35 204.555 1689.34 200.547 1683.62 197.467C1677.9 194.388 1671.69 192.139 1665 190.722C1658.35 189.304 1651.51 188.596 1644.47 188.596C1632.29 188.596 1621.66 190.453 1612.57 194.168C1603.48 197.834 1595.9 202.991 1589.84 209.639C1583.78 216.287 1579.23 224.083 1576.2 233.028C1573.22 241.925 1571.71 251.627 1571.66 262.137C1571.71 273.722 1573.32 283.987 1576.5 292.932C1579.72 301.828 1584.46 309.307 1590.72 315.369C1596.98 321.429 1604.7 326.024 1613.89 329.153C1623.08 332.281 1633.64 333.845 1645.57 333.845C1651.19 333.845 1656.69 333.429 1662.06 332.599C1667.44 331.817 1672.3 330.839 1676.65 329.666C1681 328.542 1684.5 327.442 1687.14 326.366L1694.4 347.629C1691.32 349.39 1687.14 351.027 1681.86 352.542C1676.63 354.106 1670.71 355.353 1664.12 356.281C1657.57 357.259 1650.82 357.748 1643.88 357.748ZM1640.51 291.466C1646.47 291.466 1651.21 290.316 1654.73 288.019C1658.3 285.722 1660.84 282.324 1662.36 277.828C1663.92 273.282 1664.65 267.685 1664.56 261.037C1664.51 255.171 1663.75 250.21 1662.28 246.153C1660.87 242.047 1658.4 238.943 1654.88 236.841C1651.41 234.69 1646.57 233.615 1640.36 233.615C1634.93 233.615 1630.31 234.764 1626.5 237.061C1622.74 239.358 1619.85 242.585 1617.85 246.739C1615.9 250.845 1614.89 255.685 1614.84 261.257C1614.89 266.438 1615.72 271.351 1617.34 275.995C1618.95 280.59 1621.61 284.328 1625.33 287.213C1629.04 290.048 1634.1 291.466 1640.51 291.466ZM1758.28 314.488V201.867H1788.04V221.737H1789.36C1791.71 215.138 1795.62 209.932 1801.1 206.119C1806.58 202.307 1813.13 200.4 1820.74 200.4C1828.47 200.4 1835.05 202.331 1840.48 206.193C1845.9 210.005 1849.51 215.187 1851.32 221.737H1852.49C1854.79 215.285 1858.95 210.128 1864.96 206.266C1871.03 202.356 1878.19 200.4 1886.44 200.4C1896.95 200.4 1905.48 203.749 1912.04 210.445C1918.63 217.093 1921.93 226.527 1921.93 238.747V314.488H1890.77V244.906C1890.77 238.65 1889.11 233.957 1885.79 230.829C1882.46 227.7 1878.31 226.136 1873.31 226.136C1867.65 226.136 1863.23 227.945 1860.05 231.562C1856.87 235.13 1855.29 239.847 1855.29 245.713V314.488H1825V244.246C1825 238.723 1823.41 234.324 1820.24 231.049C1817.11 227.774 1812.98 226.136 1807.85 226.136C1804.37 226.136 1801.25 227.016 1798.46 228.776C1795.72 230.486 1793.54 232.906 1791.94 236.034C1790.32 239.114 1789.51 242.731 1789.51 246.886V314.488H1758.28ZM1978.71 316.615C1971.53 316.615 1965.13 315.369 1959.51 312.875C1953.89 310.333 1949.44 306.594 1946.16 301.657C1942.93 296.671 1941.33 290.463 1941.33 283.034C1941.33 276.777 1942.48 271.522 1944.78 267.269C1947.06 263.017 1950.2 259.595 1954.16 257.004C1958.12 254.414 1962.62 252.458 1967.65 251.139C1972.73 249.819 1978.06 248.89 1983.63 248.352C1990.19 247.668 1995.47 247.033 1999.47 246.446C2003.48 245.811 2006.38 244.882 2008.19 243.66C2010.01 242.438 2010.91 240.629 2010.91 238.234V237.794C2010.91 233.15 2009.44 229.558 2006.51 227.016C2003.63 224.474 1999.52 223.203 1994.19 223.203C1988.57 223.203 1984.09 224.45 1980.77 226.943C1977.45 229.387 1975.25 232.466 1974.18 236.181L1945.28 233.835C1946.75 226.992 1949.63 221.077 1953.94 216.091C1958.24 211.056 1963.79 207.195 1970.58 204.506C1977.43 201.769 1985.34 200.4 1994.34 200.4C2000.6 200.4 2006.58 201.134 2012.31 202.6C2018.07 204.066 2023.17 206.339 2027.62 209.419C2032.13 212.498 2035.66 216.458 2038.26 221.297C2040.84 226.087 2042.14 231.831 2042.14 238.527V314.488H2012.52V298.871H2011.64C2009.83 302.391 2007.41 305.494 2004.38 308.183C2001.35 310.823 1997.7 312.9 1993.45 314.415C1989.2 315.882 1984.29 316.615 1978.71 316.615ZM1987.67 295.058C1992.26 295.058 1996.32 294.154 1999.83 292.345C2003.35 290.488 2006.11 287.994 2008.13 284.866C2010.13 281.738 2011.13 278.194 2011.13 274.235V262.284C2010.15 262.919 2008.81 263.506 2007.1 264.043C2005.43 264.532 2003.55 264.996 2001.45 265.436C1999.35 265.827 1997.25 266.194 1995.15 266.536C1993.04 266.829 1991.14 267.098 1989.42 267.343C1985.76 267.88 1982.56 268.736 1979.81 269.909C1977.08 271.082 1974.96 272.671 1973.43 274.675C1971.93 276.63 1971.17 279.074 1971.17 282.007C1971.17 286.26 1972.71 289.51 1975.78 291.759C1978.91 293.959 1982.87 295.058 1987.67 295.058ZM2160.08 233.981L2131.48 235.741C2131 233.297 2129.95 231.097 2128.33 229.142C2126.72 227.138 2124.59 225.55 2121.95 224.376C2119.36 223.154 2116.26 222.543 2112.64 222.543C2107.8 222.543 2103.72 223.57 2100.4 225.623C2097.07 227.627 2095.41 230.315 2095.41 233.688C2095.41 236.377 2096.49 238.65 2098.64 240.507C2100.79 242.365 2104.48 243.855 2109.71 244.98L2130.09 249.086C2141.04 251.334 2149.21 254.951 2154.57 259.937C2159.95 264.923 2162.65 271.473 2162.65 279.587C2162.65 286.968 2160.47 293.445 2156.12 299.018C2151.82 304.59 2145.91 308.941 2138.38 312.069C2130.9 315.149 2122.27 316.688 2112.49 316.688C2097.59 316.688 2085.71 313.585 2076.86 307.377C2068.07 301.12 2062.91 292.615 2061.39 281.861L2092.11 280.247C2093.04 284.793 2095.29 288.264 2098.85 290.659C2102.42 293.005 2107 294.179 2112.56 294.179C2118.04 294.179 2122.44 293.128 2125.77 291.026C2129.14 288.875 2130.85 286.113 2130.9 282.74C2130.85 279.905 2129.65 277.583 2127.3 275.775C2124.96 273.917 2121.34 272.5 2116.46 271.522L2096.95 267.636C2085.96 265.436 2077.76 261.624 2072.39 256.198C2067.06 250.772 2064.39 243.855 2064.39 235.448C2064.39 228.214 2066.35 221.981 2070.27 216.751C2074.22 211.521 2079.77 207.488 2086.91 204.653C2094.09 201.818 2102.5 200.4 2112.13 200.4C2126.35 200.4 2137.55 203.406 2145.71 209.419C2153.92 215.431 2158.72 223.619 2160.08 233.981ZM2242.22 201.867V225.33H2174.39V201.867H2242.22ZM2189.8 174.884H2221.03V279.881C2221.03 282.764 2221.47 285.013 2222.35 286.626C2223.23 288.191 2224.45 289.29 2226.01 289.926C2227.63 290.561 2229.49 290.879 2231.59 290.879C2233.06 290.879 2234.52 290.756 2235.99 290.513C2237.45 290.219 2238.57 289.998 2239.36 289.853L2244.27 313.095C2242.7 313.585 2240.5 314.146 2237.67 314.781C2234.84 315.466 2231.39 315.882 2227.33 316.028C2219.81 316.322 2213.2 315.319 2207.54 313.022C2201.92 310.725 2197.54 307.157 2194.41 302.318C2191.28 297.477 2189.75 291.367 2189.8 283.987V174.884ZM2312.24 316.688C2300.85 316.688 2291 314.268 2282.69 309.429C2274.43 304.541 2268.05 297.747 2263.56 289.046C2259.06 280.297 2256.81 270.153 2256.81 258.618C2256.81 246.984 2259.06 236.817 2263.56 228.116C2268.05 219.366 2274.43 212.572 2282.69 207.732C2291 202.844 2300.85 200.4 2312.24 200.4C2323.64 200.4 2333.45 202.844 2341.71 207.732C2350.02 212.572 2356.42 219.366 2360.92 228.116C2365.42 236.817 2367.67 246.984 2367.67 258.618C2367.67 270.153 2365.42 280.297 2360.92 289.046C2356.42 297.747 2350.02 304.541 2341.71 309.429C2333.45 314.268 2323.64 316.688 2312.24 316.688ZM2312.38 292.492C2317.56 292.492 2321.89 291.026 2325.37 288.093C2328.84 285.111 2331.45 281.053 2333.2 275.921C2335.02 270.789 2335.92 264.948 2335.92 258.398C2335.92 251.847 2335.02 246.006 2333.2 240.874C2331.45 235.741 2328.84 231.684 2325.37 228.702C2321.89 225.721 2317.56 224.23 2312.38 224.23C2307.15 224.23 2302.75 225.721 2299.19 228.702C2295.67 231.684 2293.01 235.741 2291.19 240.874C2289.44 246.006 2288.56 251.847 2288.56 258.398C2288.56 264.948 2289.44 270.789 2291.19 275.921C2293.01 281.053 2295.67 285.111 2299.19 288.093C2302.75 291.026 2307.15 292.492 2312.38 292.492ZM2429.48 316.322C2420.93 316.322 2413.19 314.121 2406.24 309.722C2399.35 305.274 2393.87 298.748 2389.82 290.146C2385.81 281.493 2383.8 270.887 2383.8 258.324C2383.8 245.42 2385.87 234.69 2390.03 226.136C2394.19 217.533 2399.71 211.105 2406.61 206.853C2413.54 202.551 2421.15 200.4 2429.41 200.4C2435.71 200.4 2440.97 201.476 2445.17 203.626C2449.42 205.728 2452.85 208.368 2455.43 211.545C2458.08 214.673 2460.08 217.753 2461.45 220.784H2462.41V164.326H2493.56V314.488H2462.76V296.451H2461.45C2459.98 299.58 2457.9 302.684 2455.22 305.763C2452.58 308.794 2449.13 311.311 2444.87 313.315C2440.67 315.319 2435.54 316.322 2429.48 316.322ZM2439.38 291.466C2444.42 291.466 2448.67 290.097 2452.14 287.36C2455.65 284.573 2458.35 280.687 2460.2 275.701C2462.11 270.715 2463.06 264.874 2463.06 258.177C2463.06 251.481 2462.13 245.664 2460.28 240.727C2458.42 235.79 2455.73 231.977 2452.21 229.289C2448.69 226.6 2444.42 225.256 2439.38 225.256C2434.25 225.256 2429.93 226.649 2426.4 229.436C2422.88 232.222 2420.22 236.083 2418.42 241.02C2416.6 245.957 2415.7 251.676 2415.7 258.177C2415.7 264.728 2416.6 270.52 2418.42 275.555C2420.27 280.54 2422.93 284.451 2426.4 287.286C2429.93 290.073 2434.25 291.466 2439.38 291.466ZM2570.13 316.688C2558.74 316.688 2548.89 314.268 2540.58 309.429C2532.32 304.541 2525.94 297.747 2521.44 289.046C2516.95 280.297 2514.7 270.153 2514.7 258.618C2514.7 246.984 2516.95 236.817 2521.44 228.116C2525.94 219.366 2532.32 212.572 2540.58 207.732C2548.89 202.844 2558.74 200.4 2570.13 200.4C2581.52 200.4 2591.35 202.844 2599.6 207.732C2607.91 212.572 2614.32 219.366 2618.82 228.116C2623.32 236.817 2625.56 246.984 2625.56 258.618C2625.56 270.153 2623.32 280.297 2618.82 289.046C2614.32 297.747 2607.91 304.541 2599.6 309.429C2591.35 314.268 2581.52 316.688 2570.13 316.688ZM2570.28 292.492C2575.46 292.492 2579.79 291.026 2583.26 288.093C2586.72 285.111 2589.34 281.053 2591.1 275.921C2592.9 270.789 2593.82 264.948 2593.82 258.398C2593.82 251.847 2592.9 246.006 2591.1 240.874C2589.34 235.741 2586.72 231.684 2583.26 228.702C2579.79 225.721 2575.46 224.23 2570.28 224.23C2565.05 224.23 2560.65 225.721 2557.07 228.702C2553.56 231.684 2550.89 235.741 2549.09 240.874C2547.33 246.006 2546.45 251.847 2546.45 258.398C2546.45 264.948 2547.33 270.789 2549.09 275.921C2550.89 281.053 2553.56 285.111 2557.07 288.093C2560.65 291.026 2565.05 292.492 2570.28 292.492ZM2677.1 249.379V314.488H2645.87V201.867H2675.64V221.737H2676.96C2679.45 215.187 2683.63 210.005 2689.5 206.193C2695.36 202.331 2702.47 200.4 2710.83 200.4C2718.65 200.4 2725.48 202.111 2731.29 205.533C2737.11 208.954 2741.63 213.843 2744.85 220.197C2748.08 226.503 2749.7 234.03 2749.7 242.78V314.488H2718.46V248.352C2718.51 241.46 2716.75 236.083 2713.18 232.222C2709.62 228.311 2704.7 226.356 2698.44 226.356C2694.24 226.356 2690.53 227.26 2687.3 229.069C2684.12 230.878 2681.63 233.517 2679.82 236.988C2678.06 240.409 2677.15 244.54 2677.1 249.379ZM2792.56 316.395C2787.73 316.395 2783.58 314.684 2780.1 311.263C2776.68 307.792 2774.97 303.637 2774.97 298.798C2774.97 294.007 2776.68 289.901 2780.1 286.48C2783.58 283.057 2787.73 281.348 2792.56 281.348C2797.26 281.348 2801.37 283.057 2804.89 286.48C2808.4 289.901 2810.17 294.007 2810.17 298.798C2810.17 302.023 2809.33 304.981 2807.67 307.67C2806.07 310.309 2803.94 312.435 2801.29 314.048C2798.66 315.612 2795.74 316.395 2792.56 316.395ZM2929.52 233.981L2900.92 235.741C2900.42 233.297 2899.37 231.097 2897.77 229.142C2896.16 227.138 2894.03 225.55 2891.39 224.376C2888.8 223.154 2885.69 222.543 2882.08 222.543C2877.23 222.543 2873.15 223.57 2869.84 225.623C2866.51 227.627 2864.84 230.315 2864.84 233.688C2864.84 236.377 2865.92 238.65 2868.07 240.507C2870.22 242.365 2873.92 243.855 2879.15 244.98L2899.52 249.086C2910.48 251.334 2918.64 254.951 2924.01 259.937C2929.39 264.923 2932.08 271.473 2932.08 279.587C2932.08 286.968 2929.91 293.445 2925.56 299.018C2921.26 304.59 2915.34 308.941 2907.81 312.069C2900.34 315.149 2891.71 316.688 2881.93 316.688C2867.02 316.688 2855.14 313.585 2846.3 307.377C2837.49 301.12 2832.34 292.615 2830.83 281.861L2861.54 280.247C2862.48 284.793 2864.72 288.264 2868.29 290.659C2871.86 293.005 2876.43 294.179 2882 294.179C2887.48 294.179 2891.88 293.128 2895.19 291.026C2898.57 288.875 2900.29 286.113 2900.34 282.74C2900.29 279.905 2899.09 277.583 2896.74 275.775C2894.39 273.917 2890.78 272.5 2885.89 271.522L2866.39 267.636C2855.38 265.436 2847.2 261.624 2841.82 256.198C2836.49 250.772 2833.83 243.855 2833.83 235.448C2833.83 228.214 2835.79 221.981 2839.69 216.751C2843.65 211.521 2849.2 207.488 2856.34 204.653C2863.53 201.818 2871.94 200.4 2881.56 200.4C2895.79 200.4 2906.98 203.406 2915.15 209.419C2923.36 215.431 2928.14 223.619 2929.52 233.981ZM3002.64 316.688C2991.25 316.688 2981.39 314.268 2973.09 309.429C2964.83 304.541 2958.45 297.747 2953.95 289.046C2949.45 280.297 2947.21 270.153 2947.21 258.618C2947.21 246.984 2949.45 236.817 2953.95 228.116C2958.45 219.366 2964.83 212.572 2973.09 207.732C2981.39 202.844 2991.25 200.4 3002.64 200.4C3014.02 200.4 3023.85 202.844 3032.11 207.732C3040.42 212.572 3046.82 219.366 3051.32 228.116C3055.81 236.817 3058.06 246.984 3058.06 258.618C3058.06 270.153 3055.81 280.297 3051.32 289.046C3046.82 297.747 3040.42 304.541 3032.11 309.429C3023.85 314.268 3014.02 316.688 3002.64 316.688ZM3002.78 292.492C3007.96 292.492 3012.29 291.026 3015.77 288.093C3019.23 285.111 3021.85 281.053 3023.6 275.921C3025.41 270.789 3026.31 264.948 3026.31 258.398C3026.31 251.847 3025.41 246.006 3023.6 240.874C3021.85 235.741 3019.23 231.684 3015.77 228.702C3012.29 225.721 3007.96 224.23 3002.78 224.23C2997.55 224.23 2993.15 225.721 2989.58 228.702C2986.07 231.684 2983.4 235.741 2981.59 240.874C2979.84 246.006 2978.95 251.847 2978.95 258.398C2978.95 264.948 2979.84 270.789 2981.59 275.921C2983.4 281.053 2986.07 285.111 2989.58 288.093C2993.15 291.026 2997.55 292.492 3002.78 292.492ZM3129.26 316.688C3117.73 316.688 3107.8 314.244 3099.49 309.356C3091.23 304.419 3084.88 297.576 3080.43 288.826C3076.03 280.077 3073.82 270.007 3073.82 258.618C3073.82 247.082 3076.05 236.963 3080.5 228.262C3085 219.513 3091.38 212.694 3099.64 207.806C3107.9 202.869 3117.73 200.4 3129.12 200.4C3138.94 200.4 3147.54 202.184 3154.92 205.753C3162.3 209.321 3168.15 214.331 3172.45 220.784C3176.75 227.236 3179.11 234.812 3179.56 243.513H3150.08C3149.26 237.892 3147.05 233.37 3143.48 229.949C3139.97 226.478 3135.35 224.743 3129.62 224.743C3124.79 224.743 3120.56 226.063 3116.94 228.702C3113.38 231.293 3110.58 235.081 3108.58 240.067C3106.58 245.053 3105.57 251.09 3105.57 258.177C3105.57 265.363 3106.55 271.473 3108.5 276.508C3110.52 281.543 3113.33 285.379 3116.94 288.019C3120.56 290.659 3124.79 291.979 3129.62 291.979C3133.2 291.979 3136.4 291.246 3139.23 289.78C3142.12 288.312 3144.48 286.187 3146.35 283.4C3148.25 280.565 3149.5 277.168 3150.08 273.208H3179.56C3179.06 281.811 3176.73 289.388 3172.52 295.938C3168.37 302.439 3162.62 307.523 3155.29 311.189C3147.96 314.856 3139.28 316.688 3129.26 316.688ZM3199.56 314.488V201.867H3230.79V314.488H3199.56ZM3215.25 187.349C3210.6 187.349 3206.62 185.809 3203.3 182.73C3200.02 179.601 3198.39 175.862 3198.39 171.512C3198.39 167.21 3200.02 163.52 3203.3 160.44C3206.62 157.312 3210.6 155.748 3215.25 155.748C3219.89 155.748 3223.85 157.312 3227.12 160.44C3230.45 163.52 3232.12 167.21 3232.12 171.512C3232.12 175.862 3230.45 179.601 3227.12 182.73C3223.85 185.809 3219.89 187.349 3215.25 187.349ZM3287.93 316.615C3280.74 316.615 3274.34 315.369 3268.71 312.875C3263.1 310.333 3258.65 306.594 3255.37 301.657C3252.15 296.671 3250.54 290.463 3250.54 283.034C3250.54 276.777 3251.69 271.522 3253.98 267.269C3256.28 263.017 3259.4 259.595 3263.36 257.004C3267.33 254.414 3271.82 252.458 3276.86 251.139C3281.94 249.819 3287.27 248.89 3292.83 248.352C3299.39 247.668 3304.67 247.033 3308.67 246.446C3312.69 245.811 3315.6 244.882 3317.4 243.66C3319.21 242.438 3320.12 240.629 3320.12 238.234V237.794C3320.12 233.15 3318.65 229.558 3315.72 227.016C3312.83 224.474 3308.72 223.203 3303.39 223.203C3297.78 223.203 3293.3 224.45 3289.98 226.943C3286.65 229.387 3284.45 232.466 3283.38 236.181L3254.49 233.835C3255.95 226.992 3258.85 221.077 3263.15 216.091C3267.45 211.056 3272.99 207.195 3279.79 204.506C3286.63 201.769 3294.55 200.4 3303.54 200.4C3309.8 200.4 3315.79 201.134 3321.51 202.6C3327.28 204.066 3332.39 206.339 3336.84 209.419C3341.32 212.498 3344.87 216.458 3347.47 221.297C3350.05 226.087 3351.35 231.831 3351.35 238.527V314.488H3321.73V298.871H3320.85C3319.05 302.391 3316.62 305.494 3313.59 308.183C3310.56 310.823 3306.92 312.9 3302.66 314.415C3298.41 315.882 3293.5 316.615 3287.93 316.615ZM3296.88 295.058C3301.46 295.058 3305.52 294.154 3309.04 292.345C3312.57 290.488 3315.32 287.994 3317.33 284.866C3319.33 281.738 3320.33 278.194 3320.33 274.235V262.284C3319.35 262.919 3318.02 263.506 3316.3 264.043C3314.64 264.532 3312.76 264.996 3310.66 265.436C3308.56 265.827 3306.46 266.194 3304.36 266.536C3302.26 266.829 3300.34 267.098 3298.63 267.343C3294.96 267.88 3291.76 268.736 3289.03 269.909C3286.29 271.082 3284.17 272.671 3282.65 274.675C3281.14 276.63 3280.37 279.074 3280.37 282.007C3280.37 286.26 3281.92 289.51 3285 291.759C3288.12 293.959 3292.08 295.058 3296.88 295.058ZM3406.82 164.326V314.488H3375.58V164.326H3406.82Z" fill="white"/>
<defs>
<linearGradient id="paint0_linear_63_36" x1="1767" y1="0" x2="1767" y2="512" gradientUnits="userSpaceOnUse">
<stop stop-color="#6364FF"/>
<stop offset="1" stop-color="#563ACC"/>
</linearGradient>
</defs>
</svg>
