<svg width="565" height="90" viewBox="0 0 565 90" fill="none" xmlns="http://www.w3.org/2000/svg"> <path d="M31.855 88.5H0.91748V1.22724H32.1106C40.889 1.22724 48.4459 2.9744 54.7811 6.46872C61.1163 9.93467 65.9885 14.9205 69.3976 21.4261C72.8351 27.9318 74.5538 35.7159 74.5538 44.7784C74.5538 53.8693 72.8351 61.6818 69.3976 68.2159C65.9885 74.75 61.0879 79.7642 54.6959 83.2585C48.3322 86.7528 40.7186 88.5 31.855 88.5ZM19.3692 72.6903H31.0879C36.5425 72.6903 41.1305 71.7244 44.8521 69.7926C48.6021 67.8324 51.4146 64.8068 53.2896 60.7159C55.193 56.5966 56.1447 51.2841 56.1447 44.7784C56.1447 38.3295 55.193 33.0597 53.2896 28.9688C51.4146 24.8778 48.6163 21.8665 44.8947 19.9347C41.1731 18.0028 36.5851 17.0369 31.1305 17.0369H19.3692V72.6903ZM168.421 44.8636C168.421 54.3807 166.617 62.4773 163.009 69.1534C159.429 75.8295 154.543 80.929 148.35 84.4517C142.185 87.946 135.253 89.6932 127.554 89.6932C119.799 89.6932 112.838 87.9318 106.674 84.4091C100.509 80.8864 95.6369 75.7869 92.0574 69.1108C88.4778 62.4347 86.6881 54.3523 86.6881 44.8636C86.6881 35.3466 88.4778 27.25 92.0574 20.5739C95.6369 13.8977 100.509 8.81247 106.674 5.31815C112.838 1.79542 119.799 0.0340576 127.554 0.0340576C135.253 0.0340576 142.185 1.79542 148.35 5.31815C154.543 8.81247 159.429 13.8977 163.009 20.5739C166.617 27.25 168.421 35.3466 168.421 44.8636ZM149.713 44.8636C149.713 38.6989 148.79 33.5 146.944 29.267C145.125 25.0341 142.554 21.8239 139.23 19.6364C135.907 17.4489 132.015 16.3551 127.554 16.3551C123.094 16.3551 119.202 17.4489 115.878 19.6364C112.554 21.8239 109.969 25.0341 108.123 29.267C106.304 33.5 105.395 38.6989 105.395 44.8636C105.395 51.0284 106.304 56.2273 108.123 60.4602C109.969 64.6932 112.554 67.9034 115.878 70.0909C119.202 72.2784 123.094 73.3722 127.554 73.3722C132.015 73.3722 135.907 72.2784 139.23 70.0909C142.554 67.9034 145.125 64.6932 146.944 60.4602C148.79 56.2273 149.713 51.0284 149.713 44.8636ZM182.089 1.22724H204.845L228.879 59.8636H229.902L253.936 1.22724H276.691V88.5H258.794V31.696H258.069L235.484 88.0739H223.297L200.711 31.483H199.987V88.5H182.089V1.22724ZM307.064 1.22724V88.5H293.897V1.22724H307.064ZM396.681 1.22724V88.5H384.578L340.218 24.4943H339.408V88.5H326.24V1.22724H338.428L382.831 65.3182H383.641V1.22724H396.681ZM423.261 88.5H409.284L440.69 1.22724H455.903L487.309 88.5H473.332L448.659 17.0795H447.977L423.261 88.5ZM425.605 54.3239H470.946V65.4034H425.605V54.3239ZM499.912 88.5V1.22724H531.02C537.782 1.22724 543.392 2.39201 547.853 4.72156C552.341 7.0511 555.694 10.2756 557.909 14.3949C560.125 18.4858 561.233 23.2159 561.233 28.5852C561.233 33.9261 560.111 38.6278 557.867 42.6903C555.651 46.7244 552.299 49.8636 547.81 52.108C543.35 54.3523 537.739 55.4744 530.978 55.4744H507.412V44.1392H529.784C534.046 44.1392 537.512 43.5284 540.182 42.3068C542.881 41.0852 544.855 39.3097 546.105 36.9801C547.355 34.6506 547.98 31.8523 547.98 28.5852C547.98 25.2898 547.341 22.4347 546.063 20.0199C544.813 17.6051 542.838 15.7585 540.14 14.4801C537.469 13.1733 533.961 12.5199 529.614 12.5199H513.08V88.5H499.912ZM542.995 49.125L564.557 88.5H549.557L528.421 49.125H542.995Z" fill="black"/> </svg>
